# xmcd
#
# Track frame offsets:
#	150
#	10145
#	25457
#	35817
#	48842
#	60902
#	72300
#	84097
#	97175
#	110517
#	120729
#	136012
#	152050
#	167567
#	178370
#	193042
#	208555
#	222917
#	235590
#	248832
#	263740
#
# Disc length: 3686 seconds
#
# Revision: 1
# Processed by: cddbd v1.5.2PL0 Copyright (c) Steve Scherf et al.
# Submitted via: MusicManager 7.3.0.0 
#
DISCID=1f0e6415
DTITLE=Merle Haggard - Hag and Let Me Tell You About A Song
DYEAR=2002
DGENRE=Country
TTITLE0=Soldier's Last Letter
TTITLE1=Shelly's Winter Love
TTITLE2=Jesus, Take A Hold
TTITLE3=I Can't Be Myself
TTITLE4=I'm A Good Loser
TTITLE5=Sidewalks Of Chicago
TTITLE6=No Reason To Quit
TTITLE7=If You've Got Time
TTITLE8=The Farmer's Daughter
TTITLE9=I've Done It All
TTITLE10=Daddy Frank (The Guitar Man)
TTITLE11=They're Tearin' The Labor Camps Down
TTITLE12=The Man Who Picked The Wildwood Flower
TTITLE13=Recitation: The Proudest Fiddle In The World (A Maiden's Prayer)
TTITLE14=Bill Woods From Bakersfield
TTITLE15=Old Doc Brown
TTITLE16=Grandma Harp
TTITLE17=Turnin' Off A Memory
TTITLE18=Irma Jackson
TTITLE19=The Funeral
TTITLE20=Bring It On Down To My House, Honey
EXTD=
EXTT0=
EXTT1=
EXTT2=
EXTT3=
EXTT4=
EXTT5=
EXTT6=
EXTT7=
EXTT8=
EXTT9=
EXTT10=
EXTT11=
EXTT12=
EXTT13=
EXTT14=
EXTT15=
EXTT16=
EXTT17=
EXTT18=
EXTT19=
EXTT20=
PLAYORDER=
